<?xml version="1.0" standalone="no"?>
<!DOCTYPE svg PUBLIC "-//W3C//DTD SVG 20010904//EN"
 "http://www.w3.org/TR/2001/REC-SVG-20010904/DTD/svg10.dtd">
<svg version="1.0" xmlns="http://www.w3.org/2000/svg"
 width="1023.000000pt" height="204.000000pt" viewBox="0 0 1023.000000 204.000000"
 preserveAspectRatio="xMidYMid meet">

<g transform="translate(0.000000,204.000000) scale(0.100000,-0.100000)"
fill="#000000" stroke="none">
<path d="M1852 1560 c-19 -23 -63 -117 -318 -682 -150 -331 -173 -390 -164
-408 9 -16 19 -20 47 -18 l35 3 119 265 c66 146 154 342 195 435 120 270 122
275 131 275 4 0 60 -108 125 -239 l116 -239 56 -4 c31 -1 56 -2 56 -1 0 12
-304 619 -313 625 -23 15 -67 8 -85 -12z"/>
<path d="M2842 1558 c-17 -17 -17 -498 -1 -498 7 0 29 5 50 12 l39 11 0 194 0
193 368 0 c202 0 377 3 390 6 27 8 38 44 22 73 -11 21 -15 21 -433 21 -316 0
-426 -3 -435 -12z"/>
<path d="M3942 1558 c-19 -19 -15 -66 7 -78 12 -6 106 -10 235 -10 l216 0 0
-499 c0 -549 -3 -525 62 -519 l33 3 3 508 2 507 229 0 c216 0 229 1 246 20 15
16 17 26 9 48 l-9 27 -511 3 c-388 2 -513 -1 -522 -10z"/>
<path d="M5280 1550 c-8 -15 -10 -179 -8 -544 3 -566 2 -556 57 -556 50 0 51
7 51 262 l0 238 370 2 c204 1 382 2 398 2 l27 1 5 -243 c5 -227 6 -245 24
-258 22 -16 55 -10 73 14 10 12 11 136 7 546 -3 292 -7 537 -10 544 -4 15 -66
16 -82 0 -9 -9 -12 -79 -12 -254 l0 -241 -37 -7 c-21 -3 -201 -6 -400 -6
l-363 0 0 241 c0 146 -4 248 -10 260 -15 27 -75 26 -90 -1z"/>
<path d="M6687 1552 c-15 -17 -17 -69 -17 -545 0 -464 2 -527 16 -541 14 -14
67 -16 440 -16 l425 0 8 23 c5 12 5 31 1 42 -7 19 -18 20 -394 23 -212 1 -386
3 -386 5 -7 107 -10 927 -4 927 587 1 765 6 774 20 13 21 12 54 -2 68 -9 9
-118 12 -428 12 -391 0 -418 -1 -433 -18z"/>
<path d="M7940 1555 c-18 -22 -18 -1068 0 -1090 18 -22 67 -19 80 4 6 12 10
103 10 225 l0 206 218 0 218 0 129 -182 c196 -279 202 -286 253 -267 14 5 22
17 22 31 0 14 -58 106 -140 221 -82 116 -135 199 -127 201 6 2 32 9 57 16 157
40 247 208 210 392 -16 84 -40 127 -96 177 -85 75 -124 81 -499 81 -278 0
-324 -2 -335 -15z m718 -112 c42 -21 64 -41 87 -77 27 -45 30 -58 30 -131 0
-73 -3 -87 -30 -130 -21 -35 -45 -56 -80 -74 -49 -26 -51 -26 -342 -29 l-293
-4 0 236 0 235 143 4 c78 2 207 3 286 1 136 -2 146 -4 199 -31z"/>
<path d="M3270 1073 c-117 -8 -260 -40 -425 -93 -240 -78 -309 -91 -500 -97
-191 -6 -312 10 -468 60 l-105 34 -16 -34 c-24 -51 -20 -62 31 -84 134 -58
319 -90 512 -90 193 0 304 19 524 90 219 71 279 82 512 90 l180 6 3 54 c2 37
-1 57 -10 62 -12 8 -141 9 -238 2z"/>
<path d="M6850 1051 c-14 -27 -13 -66 4 -80 9 -8 90 -11 272 -9 l259 3 9 27
c7 18 6 35 -2 53 l-12 25 -259 0 c-247 0 -261 -1 -271 -19z"/>
<path d="M2885 808 c-16 -6 -36 -15 -42 -21 -18 -13 -18 -308 -1 -325 17 -17
849 -17 866 0 17 17 15 63 -3 78 -12 10 -102 12 -392 9 l-378 -4 -3 138 c-1
75 -6 137 -10 136 -4 0 -20 -5 -37 -11z"/>
<path d="M2260 703 c1 -5 29 -62 63 -128 55 -106 65 -120 90 -123 32 -4 57 12
57 37 0 8 -23 62 -52 118 l-52 103 -53 0 c-29 0 -53 -3 -53 -7z"/>
</g>
</svg>
