<?xml version="1.0" standalone="no"?>
<!DOCTYPE svg PUBLIC "-//W3C//DTD SVG 20010904//EN"
 "http://www.w3.org/TR/2001/REC-SVG-20010904/DTD/svg10.dtd">
<svg version="1.0" xmlns="http://www.w3.org/2000/svg"
 width="1024.000000pt" height="1024.000000pt" viewBox="0 0 1024.000000 1024.000000"
 preserveAspectRatio="xMidYMid meet">

<g transform="translate(0.000000,1024.000000) scale(0.100000,-0.100000)"
fill="#000000" stroke="none">
<path d="M5019 7937 c-294 -257 -500 -563 -609 -902 -17 -55 -33 -101 -35
-103 -2 -2 -21 8 -42 21 -197 125 -492 221 -798 262 -129 18 -481 24 -495 9
-5 -5 -14 -76 -20 -159 -31 -398 58 -796 249 -1109 23 -38 38 -72 34 -76 -4
-4 -51 -21 -103 -39 -133 -45 -338 -147 -461 -230 -168 -112 -323 -258 -457
-430 l-42 -53 18 -29 c35 -56 133 -167 225 -256 213 -205 467 -361 722 -443
55 -17 101 -33 103 -35 2 -2 -15 -36 -39 -76 -168 -288 -259 -634 -259 -983 0
-127 16 -264 32 -284 11 -13 41 -14 218 -9 420 12 754 97 1038 264 41 24 77
43 80 43 4 0 23 -51 42 -112 61 -200 207 -468 346 -639 95 -117 335 -339 365
-339 12 0 205 168 265 231 183 192 350 474 431 731 20 65 41 118 46 118 4 0
40 -18 80 -39 170 -93 432 -178 677 -220 131 -22 413 -44 509 -39 62 3 65 4
73 33 5 17 11 95 15 175 10 240 -23 486 -94 700 -36 109 -122 298 -174 383
-17 27 -27 53 -22 57 4 4 49 21 99 38 184 63 387 172 544 290 135 103 337 310
404 413 l17 27 -89 108 c-238 292 -572 524 -882 613 -41 12 -80 24 -86 26 -8
2 18 63 65 157 162 322 231 630 218 978 -3 85 -10 169 -15 185 -8 30 -9 30
-103 39 -125 11 -370 -6 -536 -39 -226 -44 -450 -124 -613 -220 -42 -25 -81
-45 -86 -45 -5 0 -27 53 -49 118 -74 220 -209 456 -373 652 -107 128 -305 310
-336 310 -8 0 -51 -33 -97 -73z m247 -184 c167 -164 287 -333 390 -548 45 -94
106 -260 116 -317 2 -11 -33 -55 -93 -115 -52 -54 -118 -133 -147 -177 -57
-88 -55 -88 -67 33 -22 221 -148 492 -314 672 l-57 62 -51 -69 c-160 -218
-247 -458 -265 -738 l-3 -39 -50 74 c-27 41 -96 121 -152 178 -57 56 -103 109
-103 117 0 33 85 269 134 369 96 199 253 408 419 557 l88 79 28 -20 c15 -11
72 -64 127 -118z m-97 -665 c153 -210 235 -434 235 -643 0 -97 -1 -102 -43
-190 -23 -49 -78 -172 -121 -272 -43 -100 -85 -191 -93 -203 l-15 -22 -15 24
c-9 12 -39 79 -67 148 -29 69 -83 193 -121 276 l-69 151 0 112 c0 124 17 222
60 353 43 127 156 348 179 348 6 0 37 -37 70 -82z m1953 34 c9 -9 12 -61 12
-185 -1 -339 -86 -655 -251 -935 l-55 -94 -111 7 c-103 6 -230 -3 -304 -21
l-28 -7 28 34 c61 76 158 229 191 301 60 132 108 320 117 458 l3 45 -54 -3
c-255 -14 -525 -127 -739 -309 -42 -36 -44 -36 -38 -13 13 46 19 284 9 350
-10 64 -10 65 16 88 47 40 314 167 429 205 122 39 283 73 415 87 120 12 345 7
360 -8z m-3612 -2 c283 -35 559 -124 775 -253 l60 -35 0 -189 c1 -103 5 -203
9 -221 l9 -33 -86 65 c-47 35 -107 77 -132 92 -73 42 -211 99 -303 123 -110
29 -302 55 -316 41 -13 -13 15 -199 49 -315 46 -158 125 -306 231 -430 l42
-50 -216 1 -215 0 -34 50 c-129 188 -232 471 -262 719 -12 97 -15 347 -5 408
l7 37 151 0 c83 0 190 -5 236 -10z m1028 -466 c87 -94 168 -206 220 -304 22
-41 86 -190 142 -330 143 -358 221 -540 230 -540 10 0 128 272 245 565 102
254 154 364 224 470 49 75 185 224 195 214 11 -11 8 -263 -4 -330 -16 -91 -46
-181 -95 -279 -40 -80 -335 -753 -335 -764 0 -7 235 75 364 126 142 56 289
127 401 193 171 100 297 135 495 135 66 0 120 -3 120 -6 0 -14 -82 -101 -150
-158 -233 -197 -601 -374 -1015 -488 -60 -16 -114 -34 -119 -39 -6 -5 85 -55
225 -123 263 -128 332 -158 539 -227 203 -69 342 -152 469 -283 l54 -55 -27
-7 c-55 -13 -327 3 -409 24 -113 31 -354 136 -671 293 -154 77 -281 137 -284
135 -2 -3 33 -103 78 -223 74 -198 161 -389 270 -594 48 -92 74 -189 89 -329
10 -104 5 -220 -9 -220 -17 0 -173 176 -224 254 -95 143 -169 308 -412 929
l-38 98 -30 -58 c-54 -107 -142 -325 -236 -586 -70 -194 -107 -282 -150 -355
-59 -99 -184 -253 -222 -273 l-21 -11 6 173 c3 103 12 202 22 243 18 80 85
245 345 845 27 63 48 117 45 119 -5 6 -51 -10 -255 -85 -222 -83 -334 -133
-490 -222 -135 -77 -202 -103 -325 -126 -72 -14 -281 -22 -291 -12 -9 9 133
151 211 212 109 85 213 146 370 215 118 52 473 190 490 190 25 0 205 64 198
70 -10 10 -435 199 -541 241 -42 17 -133 51 -202 76 -68 25 -158 66 -200 91
-139 84 -335 251 -316 269 13 13 163 16 261 4 132 -16 224 -47 478 -165 364
-169 628 -288 632 -284 8 7 -220 552 -300 718 -107 223 -125 288 -132 493 -4
106 -2 157 5 157 6 0 42 -34 80 -76z m2049 -111 c-16 -144 -90 -348 -178 -489
-84 -133 -165 -210 -295 -280 -182 -97 -481 -224 -530 -224 -20 0 -21 -3 102
310 131 332 132 334 210 414 149 153 341 254 584 306 121 26 114 29 107 -37z
m-2820 27 c265 -43 560 -204 648 -354 52 -90 261 -605 253 -626 -2 -5 -102 34
-223 86 -121 53 -267 114 -325 136 -97 38 -110 46 -177 114 -140 143 -259 393
-286 607 -6 46 -6 47 21 47 15 0 55 -5 89 -10z m-301 -878 c54 -54 132 -121
172 -149 l72 -51 -62 -7 c-259 -27 -522 -144 -708 -315 l-55 -50 50 -45 c61
-55 188 -141 270 -182 134 -68 259 -101 413 -112 l92 -6 -69 -53 c-39 -29
-115 -101 -171 -158 -115 -121 -90 -116 -268 -58 -176 57 -356 156 -517 284
-85 68 -226 206 -289 283 l-38 47 26 35 c15 19 66 76 114 126 217 229 487 396
782 485 41 12 78 23 81 23 3 1 50 -43 105 -97z m3575 48 c187 -63 370 -163
524 -290 76 -62 218 -206 279 -282 l38 -48 -66 -79 c-206 -247 -508 -450 -826
-556 l-112 -37 -86 88 c-83 85 -181 167 -230 193 -13 7 -22 15 -19 17 2 3 43
9 89 14 121 14 245 52 375 115 105 51 277 170 331 228 l24 25 -64 53 c-201
168 -428 262 -666 277 l-103 7 85 68 c47 37 122 108 168 158 83 90 83 90 124
85 22 -3 83 -19 135 -36z m-3046 -384 c215 -87 477 -208 468 -217 -4 -4 -60
-28 -123 -52 -160 -62 -289 -121 -395 -181 l-90 -51 -130 1 c-152 1 -249 25
-400 99 -108 52 -250 146 -250 165 0 21 188 146 303 202 147 71 262 99 382 94
88 -3 106 -8 235 -60z m2667 13 c138 -28 305 -99 443 -189 l80 -53 -35 -29
c-99 -83 -282 -184 -421 -232 -105 -35 -251 -59 -321 -52 -33 3 -111 27 -185
56 -140 56 -463 209 -463 221 0 4 48 26 108 49 110 43 318 142 430 205 63 35
64 35 187 35 68 0 148 -5 177 -11z m-2007 -706 c-4 -16 -44 -120 -90 -233 -45
-113 -95 -242 -109 -287 -35 -105 -88 -177 -191 -259 -132 -106 -304 -183
-492 -219 -43 -9 -88 -18 -100 -21 -20 -4 -23 0 -23 30 0 51 25 162 59 259 71
204 206 408 321 485 153 103 528 270 609 271 20 1 22 -2 16 -26z m1175 -133
c140 -61 252 -104 380 -147 60 -20 182 -144 236 -238 78 -138 131 -292 149
-434 l7 -54 -58 8 c-174 21 -420 107 -542 189 -129 86 -172 141 -260 331 -89
191 -168 385 -178 434 l-7 32 59 -27 c33 -15 129 -57 214 -94z m-702 -97 c12
-26 49 -113 83 -193 33 -80 88 -196 121 -258 l61 -114 -6 -126 c-6 -142 -33
-264 -89 -405 -35 -87 -104 -215 -141 -261 l-22 -26 -40 55 c-57 78 -130 206
-164 290 -59 140 -83 241 -88 370 -5 114 -4 123 22 180 15 33 56 135 90 226
75 198 131 322 143 315 4 -2 18 -26 30 -53z m-1315 -130 c-166 -204 -265 -447
-289 -706 l-7 -77 39 0 c61 0 211 27 309 55 151 44 330 146 453 258 l45 42 -6
-30 c-13 -56 -19 -290 -9 -354 l9 -63 -46 -33 c-56 -41 -221 -124 -316 -160
-91 -34 -267 -80 -380 -100 -110 -19 -440 -41 -476 -32 -26 7 -27 9 -34 114
-14 226 34 533 121 756 39 102 109 240 157 312 l34 49 164 3 c90 1 182 6 204
11 77 18 78 16 28 -45z m3053 -30 c122 -191 210 -432 250 -683 17 -111 24
-426 10 -469 -8 -23 -8 -23 -130 -17 -261 15 -464 50 -676 118 -114 36 -319
128 -396 176 l-31 20 5 143 c2 81 0 174 -6 214 -6 38 -10 70 -9 71 1 1 40 -27
87 -62 180 -136 408 -220 709 -259 l54 -7 -7 73 c-16 170 -68 346 -141 485
-37 71 -69 118 -148 220 l-18 23 98 -5 c54 -3 132 -1 173 4 141 18 135 19 176
-45z m-2071 -770 c46 -205 154 -417 295 -575 23 -27 46 -48 51 -48 13 0 122
149 163 223 82 146 142 346 154 510 l7 98 59 -81 c33 -45 102 -121 153 -170
51 -49 93 -97 93 -107 -1 -26 -43 -166 -79 -258 -95 -247 -259 -483 -456 -656
-55 -49 -105 -89 -111 -89 -23 0 -262 248 -342 355 -132 176 -273 477 -298
635 -6 39 -5 41 90 141 53 55 118 132 144 171 l47 71 6 -71 c4 -40 15 -107 24
-149z"/>
</g>
</svg>
